<?xml version="1.0" encoding="utf-8"?>
<!-- Generator: Adobe Illustrator 15.0.0, SVG Export Plug-In . SVG Version: 6.00 Build 0)  -->
<!DOCTYPE svg PUBLIC "-//W3C//DTD SVG 1.1//EN" "http://www.w3.org/Graphics/SVG/1.1/DTD/svg11.dtd">
<svg version="1.1" id="Calque_1" xmlns="http://www.w3.org/2000/svg" xmlns:xlink="http://www.w3.org/1999/xlink" x="0px" y="0px"
	 width="15.357px" height="23.893px" viewBox="0 0 15.357 23.893" enable-background="new 0 0 15.357 23.893" xml:space="preserve">
<g id="Calque_1_1_" display="none">
	<g display="inline">
		<rect id="Calendar_3_" x="-26.365" y="0.045" fill="none" width="23.897" height="23.897"/>
		<g>
			<path id="calendar_3_" fill="#2196F3" d="M-9.534,17.623h-9.839V9.892h9.839 M-11.64,4.971v1.406h-5.623V4.971h-1.406v1.406
				h-0.703c-0.776,0-1.397,0.629-1.397,1.405l-0.008,9.841c0,0.776,0.629,1.405,1.405,1.405h9.839c0.775,0,1.406-0.629,1.406-1.405
				V7.782c0-0.776-0.631-1.405-1.406-1.405h-0.702V4.971 M-10.938,12.703h-3.516v3.516h3.516V12.703z"/>
			<rect x="-14.453" y="12.678" fill="#FFC107" width="3.63" height="3.631"/>
		</g>
	</g>
</g>
<g id="Calque_2" display="none">
	<g display="inline">
		<rect id="Calendar" x="-26.365" y="0.045" fill="none" width="23.897" height="23.897"/>
		<g id="logo-sur-fond-blanc_-_copie_1_">
			<g id="XMLID_2_">
				<g>
					<path id="XMLID_3_" fill="#05B1FF" d="M-13.663,10.152l-0.446,1.036c0.864,0.376,1.285,1.365,0.938,2.205l-1.402,3.421
						c-0.383,0.875-1.348,1.305-2.195,0.93c-0.875-0.375-1.269-1.357-0.929-2.197l0.805-1.954l-1.045-0.429l-0.804,1.954
						c-0.579,1.41,0.107,3.044,1.519,3.659c1.429,0.625,3.062-0.115,3.669-1.524c0,0,0.01,0,0.01-0.009l1.401-3.43
						c0.287-0.706,0.259-1.475-0.018-2.133C-12.423,11.027-12.958,10.465-13.663,10.152z"/>
				</g>
			</g>
			<path id="XMLID_1_" fill="#50C9FF" d="M-11.699,5.224c-1.429-0.625-3.062,0.116-3.669,1.528l-1.401,3.428
				c-0.581,1.411,0.116,3.062,1.525,3.669l0.447-1.036c-0.884-0.374-1.277-1.364-0.938-2.204l1.4-3.421c0-0.007,0-0.007,0.009-0.017
				c0.385-0.866,1.349-1.286,2.188-0.921c0.866,0.376,1.277,1.356,0.929,2.195l-0.776,1.921l1.047,0.429l0.784-1.911
				c0.286-0.705,0.26-1.464-0.019-2.124C-10.459,6.09-10.985,5.527-11.699,5.224z"/>
		</g>
	</g>
</g>
<g id="Calque_3" display="none">
	<g display="inline">
		<rect id="Calendar_1_" x="-26.365" y="0.051" fill="none" width="23.896" height="23.898"/>
		<g id="Logo_1_">
			<g>
				<path fill="#4A81EA" d="M-10.429,9.689c1.258,0,2.354,0.46,3.258,1.375c0.912,0.912,1.365,2.032,1.365,3.343
					c0,1.304-0.453,2.408-1.344,3.312c-0.894,0.904-1.988,1.356-3.271,1.356c-1.342,0-2.449-0.464-3.344-1.39
					c-0.891-0.926-1.332-2.033-1.332-3.302c0-0.848,0.205-1.634,0.623-2.354c0.408-0.721,0.977-1.279,1.697-1.698
					C-12.044,9.892-11.257,9.689-10.429,9.689z M-10.451,11.343c-0.827,0-1.516,0.292-2.088,0.86
					c-0.557,0.568-0.848,1.301-0.848,2.191c0,0.988,0.354,1.765,1.063,2.347c0.55,0.451,1.183,0.678,1.894,0.678
					c0.807,0,1.494-0.292,2.063-0.872c0.57-0.579,0.851-1.3,0.851-2.151c0-0.847-0.291-1.566-0.859-2.161
					C-8.935,11.646-9.623,11.343-10.451,11.343z"/>
				<g>
					<path fill="#4A81EA" d="M-18.16,15.085c0.677,0,1.226,0.546,1.226,1.226c0,0.679-0.549,1.226-1.226,1.226
						c-0.678,0-1.225-0.547-1.225-1.226C-19.375,15.631-18.828,15.085-18.16,15.085 M-18.16,14.203
						c-1.161,0-2.108,0.943-2.108,2.106c0,1.161,0.947,2.108,2.108,2.108c1.16,0,2.107-0.947,2.107-2.108
						C-16.052,15.138-16.99,14.203-18.16,14.203L-18.16,14.203z"/>
				</g>
				<g>
					<path fill="#4A81EA" d="M-18.849,6.408c1.529,0,2.774,1.245,2.774,2.772s-1.245,2.774-2.774,2.774
						c-1.527,0-2.773-1.247-2.773-2.774C-21.623,7.644-20.376,6.408-18.849,6.408 M-18.849,4.936c-2.342,0-4.246,1.903-4.246,4.246
						s1.904,4.247,4.246,4.247c2.344,0,4.248-1.904,4.248-4.247C-14.601,6.828-16.505,4.936-18.849,4.936L-18.849,4.936z"/>
				</g>
			</g>
		</g>
	</g>
</g>
<g id="Calque_4">
	<g id="logo-sur-fond-blanc_-_copie_2_">
		<g id="XMLID_5_">
			<g>
				<path id="XMLID_6_" fill="#05B1FF" d="M9.025,8.792L8.26,10.56c1.478,0.642,2.194,2.329,1.601,3.763l-2.395,5.84
					c-0.652,1.492-2.301,2.224-3.747,1.583c-1.492-0.639-2.164-2.315-1.584-3.749l1.372-3.335L1.722,13.93l-1.37,3.335
					c-0.989,2.408,0.184,5.195,2.591,6.246c2.439,1.067,5.228-0.197,6.262-2.604c0,0,0.017,0,0.017-0.016l2.393-5.852
					c0.489-1.205,0.439-2.517-0.029-3.642C11.139,10.285,10.227,9.325,9.025,8.792z"/>
			</g>
		</g>
		<path id="XMLID_4_" fill="#50C9FF" d="M12.376,0.381C9.937-0.685,7.149,0.579,6.112,2.99l-2.394,5.85
			c-0.99,2.408,0.199,5.226,2.605,6.263l0.764-1.77c-1.51-0.637-2.18-2.33-1.601-3.762l2.391-5.838c0-0.015,0-0.015,0.017-0.028
			c0.655-1.479,2.302-2.195,3.731-1.572c1.479,0.642,2.181,2.316,1.586,3.748l-1.327,3.276l1.786,0.731l1.339-3.262
			c0.49-1.202,0.443-2.499-0.03-3.625C14.492,1.86,13.593,0.899,12.376,0.381z"/>
	</g>
</g>
</svg>
